<svg xmlns="http://www.w3.org/2000/svg" viewBox="0 0 512 512" fill="none">
  <!-- Box body -->
  <rect x="96" y="224" width="320" height="224" rx="24" fill="white"/>
  <!-- Box lid -->
  <rect x="80" y="176" width="352" height="64" rx="16" fill="white" opacity="0.85"/>
  <!-- Vertical ribbon -->
  <rect x="232" y="176" width="48" height="272" rx="4" fill="black" opacity="0.12"/>
  <!-- Horizontal ribbon -->
  <rect x="96" y="280" width="320" height="48" rx="4" fill="black" opacity="0.12"/>
  <!-- Ribbon bow left -->
  <path d="M256 176 C256 176 200 120 180 100 C160 80 160 60 180 52 C200 44 220 60 240 90 C250 110 256 140 256 176Z" fill="white"/>
  <!-- Ribbon bow right -->
  <path d="M256 176 C256 176 312 120 332 100 C352 80 352 60 332 52 C312 44 292 60 272 90 C262 110 256 140 256 176Z" fill="white"/>
  <!-- Bow highlights -->
  <path d="M256 176 C256 176 210 130 195 112 C185 100 182 85 190 75 C196 68 206 68 218 78 C235 95 256 140 256 176Z" fill="white" opacity="0.6"/>
  <path d="M256 176 C256 176 302 130 317 112 C327 100 330 85 322 75 C316 68 306 68 294 78 C277 95 256 140 256 176Z" fill="white" opacity="0.6"/>
  <!-- Center knot -->
  <circle cx="256" cy="180" r="16" fill="white" opacity="0.7"/>
</svg>